<?xml version="1.0" standalone="no"?><!DOCTYPE svg PUBLIC "-//W3C//DTD SVG 1.1//EN" "http://www.w3.org/Graphics/SVG/1.1/DTD/svg11.dtd"><svg t="1743647072885" class="icon" viewBox="0 0 1024 1024" version="1.1" xmlns="http://www.w3.org/2000/svg" p-id="1073" xmlns:xlink="http://www.w3.org/1999/xlink" width="48" height="48"><path d="M915.9168 221.866667H102.4a34.133333 34.133333 0 0 1 0-68.266667h813.5168a34.133333 34.133333 0 0 1 0 68.266667M362.052267 442.538667H102.4a34.133333 34.133333 0 0 1 0-68.266667h259.652267a34.133333 34.133333 0 0 1 0 68.266667M267.810133 663.227733H102.4a34.133333 34.133333 0 0 1 0-68.266666h165.410133a34.133333 34.133333 0 0 1 0 68.266666M318.583467 883.9168H102.4a34.133333 34.133333 0 0 1 0-68.266667h216.183467a34.133333 34.133333 0 0 1 0 68.266667M683.383467 423.918933c-115.029333 0-208.622933 93.576533-208.622934 208.622934 0 115.029333 93.5936 208.605867 208.622934 208.605866s208.622933-93.576533 208.622933-208.605866c0-115.0464-93.5936-208.622933-208.622933-208.622934m0 475.2896c-147.029333 0-266.666667-119.637333-266.666667-266.666666 0-147.0464 119.637333-266.666667 266.666667-266.666667s266.666667 119.620267 266.666666 266.666667c0 147.029333-119.637333 266.666667-266.666666 266.666666" fill="#231815" p-id="1074"></path><path d="M737.3312 755.882667c-7.424 0-14.848-2.833067-20.514133-8.4992l-73.7792-73.7792a29.013333 29.013333 0 0 1-8.4992-20.514134v-114.8928a29.013333 29.013333 0 1 1 58.043733 0v102.8608l65.28 65.297067a29.013333 29.013333 0 0 1-20.5312 49.527467" fill="#231815" p-id="1075"></path></svg>