<?xml version="1.0" standalone="no"?><!DOCTYPE svg PUBLIC "-//W3C//DTD SVG 1.1//EN" "http://www.w3.org/Graphics/SVG/1.1/DTD/svg11.dtd"><svg t="1743499701111" class="icon" viewBox="0 0 1024 1024" version="1.1" xmlns="http://www.w3.org/2000/svg" p-id="1109" xmlns:xlink="http://www.w3.org/1999/xlink" width="48" height="48"><path d="M727.125333 853.333333H296.874667A126.378667 126.378667 0 0 1 170.666667 727.125333V296.874667A126.378667 126.378667 0 0 1 296.874667 170.666667h430.250666A126.378667 126.378667 0 0 1 853.333333 296.874667v430.250666A126.293333 126.293333 0 0 1 727.125333 853.333333zM296.874667 237.141333c-32.981333 0-59.733333 26.837333-59.733334 59.733334v430.250666c0 32.981333 26.837333 59.733333 59.733334 59.733334h430.250666c32.981333 0 59.733333-26.837333 59.733334-59.733334V296.874667c0-32.981333-26.837333-59.733333-59.733334-59.733334H296.874667z" p-id="1110"></path></svg>