<?xml version="1.0" standalone="no"?><!DOCTYPE svg PUBLIC "-//W3C//DTD SVG 1.1//EN" "http://www.w3.org/Graphics/SVG/1.1/DTD/svg11.dtd"><svg t="1743670210098" class="icon" viewBox="0 0 1024 1024" version="1.1" xmlns="http://www.w3.org/2000/svg" p-id="1256" xmlns:xlink="http://www.w3.org/1999/xlink" width="48" height="48"><path d="M202.666667 202.666667A96 96 0 0 0 106.666667 298.666667v384a96 96 0 0 0 96 96h149.333333a32 32 0 0 1 0 64h-149.333333A160 160 0 0 1 42.666667 682.666667V298.666667a160 160 0 0 1 160-160h405.333333a32 32 0 0 1 0 64h-405.333333z m725.333333 256a32 32 0 0 1 32 32V682.666667a160 160 0 0 1-160 160h-226.176a96 96 0 0 0-82.346667 46.592l-26.709333 44.544a32 32 0 1 1-54.869333-32.938667l26.709333-44.501333a160 160 0 0 1 137.216-77.696h226.176A96 96 0 0 0 896 682.666667v-192a32 32 0 0 1 32-32z" fill="#333333" p-id="1257"></path><path d="M705.28 393.386667A32 32 0 0 0 682.666667 384H298.666667a32 32 0 0 0 0 64h384a32 32 0 0 0 22.613333-54.613333zM513.28 564.053333a32 32 0 0 0-22.613333-9.386666H298.666667a32 32 0 1 0 0 64h192a32 32 0 0 0 22.613333-54.613334zM938.666667 245.333333h-85.333334v-85.333333a32 32 0 1 0-64 0v85.333333h-85.333333a32 32 0 1 0 0 64h85.333333v85.333334a32 32 0 1 0 64 0v-85.333334h85.333334a32 32 0 1 0 0-64z" fill="#333333" p-id="1258"></path></svg>