<?xml version="1.0" standalone="no"?><!DOCTYPE svg PUBLIC "-//W3C//DTD SVG 1.1//EN" "http://www.w3.org/Graphics/SVG/1.1/DTD/svg11.dtd"><svg t="1743673748495" class="icon" viewBox="0 0 1024 1024" version="1.1" xmlns="http://www.w3.org/2000/svg" p-id="1539" xmlns:xlink="http://www.w3.org/1999/xlink" width="48" height="48"><path d="M606.762667 922.837333c-50.090667 0-121.642667-35.541333-177.962667-204.8l-30.72-92.16-92.16-30.72C137.045333 538.88 101.589333 467.456 101.589333 417.28s35.456-121.642667 204.373334-178.346667l362.24-120.746666a311.765333 311.765333 0 0 1 98.218666-17.664 157.866667 157.866667 0 0 1 114.261334 42.410666c46.634667 46.208 55.466667 121.685333 25.173333 212.522667l-120.746667 362.24c-56.704 169.557333-128.256 205.141333-178.346666 205.141333z m159.018666-758.314666a248.32 248.32 0 0 0-77.525333 14.165333L326.016 299.946667c-118.570667 39.509333-160.853333 86.442667-160.853333 117.333333s42.24 77.653333 160.810666 116.906667l107.562667 35.669333a31.232 31.232 0 0 1 20.096 20.053333l35.84 107.52c39.253333 118.613333 86.357333 160.853333 117.333333 160.853334s77.653333-42.24 117.290667-160.853334l120.746667-362.24c21.717333-65.578667 18.133333-119.253333-9.813334-147.2a95.530667 95.530667 0 0 0-69.248-23.466666z" fill="#292D32" p-id="1540"></path><path d="M408.789333 605.056a32.170667 32.170667 0 0 1 0-45.226667l152.832-153.173333a32 32 0 0 1 45.226667 45.226667l-152.746667 153.173333a30.933333 30.933333 0 0 1-22.613333 9.386667 31.658667 31.658667 0 0 1-22.698667-9.386667z" fill="#292D32" p-id="1541"></path></svg>