<?xml version="1.0" standalone="no"?><!DOCTYPE svg PUBLIC "-//W3C//DTD SVG 1.1//EN" "http://www.w3.org/Graphics/SVG/1.1/DTD/svg11.dtd"><svg t="1743499678049" class="icon" viewBox="0 0 1024 1024" version="1.1" xmlns="http://www.w3.org/2000/svg" p-id="952" xmlns:xlink="http://www.w3.org/1999/xlink" width="48" height="48"><path d="M650.667 277.333a96 96 0 0 1 96 96v405.334a96 96 0 0 1-96 96H245.333a96 96 0 0 1-96-96V373.333a96 96 0 0 1 96-96z m0 64H245.333a32 32 0 0 0-32 32v405.334a32 32 0 0 0 32 32h405.334a32 32 0 0 0 32-32V373.333a32 32 0 0 0-32-32zM672 128c118.763 0 221.899 101.856 223.968 220.373L896 352v362.667a32 32 0 0 1-63.947 1.877l-0.053-1.877V352c0-83.627-73.461-158.09-156.8-159.968L672 192H309.333a32 32 0 0 1-1.877-63.947l1.877-0.053H672z" p-id="953"></path></svg>